# xmcd CD database file
#
# Track frame offsets:
#	150
#	10978
#	21542
#	35919
#	47515
#	59908
#	71493
#	81975
#	93927
#	104886
#	116425
#	128897
#	140047
#	151924
#	161692
#	174574
#	186578
#	197263
#	205797
#	218504
#
# Disc length: 3062 seconds
#
# Revision: 0
# Processed by: cddbd v1.5.2PL0 Copyright (c) Steve Scherf et al.
# Submitted via: CDex 1.51
#
DISCID=2a0bf414
DTITLE=Jim Reeves - BT3037_2
DYEAR=1960
DGENRE=Country
TTITLE0=Jim Reeves - Then I'll Stop Loving You
TTITLE1=Jim Reeves - Where Does A Broken Heart Go?
TTITLE2=Jim Reeves - You're The Sweetest Thing
TTITLE3=Jim Reeves - Are You The One?
TTITLE4=Jim Reeves - Drinking Tequila
TTITLE5=Jim Reeves - Give Me One More Kiss
TTITLE6=Jim Reeves - Hillbilly Waltz
TTITLE7=Jim Reeves - How Many?
TTITLE8=Jim Reeves - Red Eyed And Rowdy
TTITLE9=Jim Reeves - Yonder Comes A Sucker
TTITLE10=Jim Reeves - Your Old Love Letters
TTITLE11=Jim Reeves - According To My Heart
TTITLE12=Jim Reeves - Am I Losing You?
TTITLE13=Jim Reeves - Beyond The Shadow Of A Doubt
TTITLE14=Jim Reeves - Have I Told You Lately That I Love You?
TTITLE15=Jim Reeves - I've Lived A Lot In My Time
TTITLE16=Jim Reeves - My Lips Are Sealed
TTITLE17=Jim Reeves - Oklahoma Hills
TTITLE18=Jim Reeves - Four Walls
TTITLE19=Jim Reeves - My Happiness
EXTD=YEAR: 1960
EXTT0=
EXTT1=
EXTT2=
EXTT3=
EXTT4=
EXTT5=
EXTT6=
EXTT7=
EXTT8=
EXTT9=
EXTT10=
EXTT11=
EXTT12=
EXTT13=
EXTT14=
EXTT15=
EXTT16=
EXTT17=
EXTT18=
EXTT19=
PLAYORDER=
